<svg xmlns="http://www.w3.org/2000/svg" viewBox="0 0 1600 400" role="img" aria-labelledby="title desc">
<title id="title">Cursed Drone by Myldy design</title>
<desc id="desc">Myldy design monogram and Cursed Drone identity</desc>
<rect width="1600" height="400" fill="#08090a"/>
<path d="M 917 189 L 915 192 L 915 194 L 917 196 L 921 196 L 923 194 L 923 191 L 921 189 Z M 640 189 L 639 190 L 639 195 L 642 197 L 645 196 L 646 195 L 646 190 L 644 189 Z M 894 177 L 893 178 L 893 207 L 895 209 L 897 209 L 899 208 L 899 178 L 898 177 Z M 664 177 L 663 178 L 663 207 L 665 209 L 667 209 L 669 208 L 669 178 L 668 177 Z M 872 162 L 870 163 L 870 171 L 869 172 L 869 174 L 870 175 L 869 177 L 869 182 L 870 183 L 870 189 L 869 190 L 869 202 L 870 203 L 869 204 L 869 220 L 870 222 L 874 223 L 876 221 L 876 164 L 874 162 Z M 689 162 L 686 164 L 686 221 L 688 223 L 691 223 L 693 221 L 693 164 L 691 162 Z M 1488 130 L 1487 131 L 1487 215 L 1488 216 L 1514 216 L 1515 215 L 1515 204 L 1501 204 L 1500 203 L 1500 180 L 1501 179 L 1512 179 L 1513 178 L 1513 167 L 1501 167 L 1500 166 L 1500 143 L 1501 142 L 1515 142 L 1515 131 L 1514 130 Z M 1441 130 L 1439 132 L 1438 132 L 1438 133 L 1436 135 L 1436 139 L 1435 140 L 1435 175 L 1436 176 L 1435 178 L 1435 215 L 1436 216 L 1447 216 L 1448 215 L 1447 213 L 1447 151 L 1448 150 L 1447 145 L 1450 142 L 1454 142 L 1456 144 L 1456 216 L 1467 216 L 1468 215 L 1468 139 L 1467 138 L 1467 135 L 1461 130 Z M 1390 130 L 1388 131 L 1384 136 L 1384 161 L 1383 162 L 1383 165 L 1384 166 L 1384 178 L 1383 179 L 1383 195 L 1384 196 L 1384 203 L 1383 204 L 1383 207 L 1384 208 L 1385 212 L 1390 216 L 1409 216 L 1411 215 L 1416 209 L 1416 137 L 1414 133 L 1410 130 Z M 1398 142 L 1402 142 L 1404 144 L 1404 202 L 1402 204 L 1398 204 L 1396 202 L 1396 144 Z M 1332 130 L 1332 143 L 1331 144 L 1331 146 L 1332 147 L 1331 148 L 1331 183 L 1332 184 L 1332 191 L 1331 192 L 1332 207 L 1331 208 L 1331 210 L 1332 211 L 1332 213 L 1331 215 L 1332 216 L 1343 216 L 1343 213 L 1344 212 L 1343 210 L 1343 208 L 1344 207 L 1344 182 L 1346 180 L 1349 182 L 1349 189 L 1350 190 L 1350 195 L 1351 196 L 1351 201 L 1352 202 L 1352 207 L 1353 208 L 1353 215 L 1354 216 L 1365 216 L 1366 214 L 1365 213 L 1365 208 L 1364 207 L 1364 202 L 1363 201 L 1362 190 L 1361 189 L 1361 185 L 1360 184 L 1360 179 L 1364 174 L 1364 136 L 1363 134 L 1358 130 Z M 1345 142 L 1350 142 L 1352 144 L 1352 167 L 1350 169 L 1345 169 L 1343 167 L 1343 160 L 1344 159 L 1343 157 L 1343 151 L 1344 149 L 1343 148 L 1344 147 L 1344 143 Z M 1279 130 L 1278 131 L 1278 215 L 1279 216 L 1304 216 L 1308 214 L 1310 212 L 1311 208 L 1312 207 L 1312 139 L 1311 138 L 1310 134 L 1305 130 Z M 1292 142 L 1297 142 L 1299 144 L 1299 202 L 1297 204 L 1292 204 L 1291 203 L 1291 143 Z M 1201 130 L 1200 131 L 1200 215 L 1201 216 L 1226 216 L 1230 214 L 1233 209 L 1233 137 L 1231 133 L 1227 130 Z M 1214 142 L 1219 142 L 1221 144 L 1221 202 L 1219 204 L 1214 204 L 1212 202 L 1212 144 Z M 1155 130 L 1154 131 L 1154 215 L 1155 216 L 1181 216 L 1181 204 L 1168 204 L 1166 202 L 1166 180 L 1167 179 L 1179 179 L 1180 178 L 1180 167 L 1168 167 L 1166 165 L 1166 144 L 1168 142 L 1181 142 L 1181 130 Z M 1109 130 L 1103 135 L 1103 137 L 1102 138 L 1102 165 L 1103 166 L 1104 170 L 1106 172 L 1107 172 L 1122 184 L 1123 186 L 1123 202 L 1121 204 L 1116 204 L 1114 201 L 1114 186 L 1102 186 L 1102 209 L 1103 211 L 1109 216 L 1128 216 L 1134 211 L 1134 209 L 1135 208 L 1135 181 L 1134 180 L 1133 176 L 1131 174 L 1130 174 L 1126 170 L 1125 170 L 1115 162 L 1114 160 L 1114 156 L 1115 154 L 1114 153 L 1115 152 L 1115 144 L 1117 142 L 1120 142 L 1123 144 L 1123 160 L 1134 160 L 1135 159 L 1135 138 L 1134 137 L 1134 135 L 1128 130 Z M 1051 130 L 1050 131 L 1050 148 L 1051 149 L 1050 150 L 1050 163 L 1051 164 L 1050 165 L 1051 167 L 1050 169 L 1050 215 L 1051 216 L 1062 216 L 1063 215 L 1063 182 L 1064 181 L 1066 181 L 1068 183 L 1068 189 L 1069 190 L 1069 195 L 1070 196 L 1070 202 L 1071 203 L 1071 208 L 1072 209 L 1072 215 L 1073 216 L 1084 216 L 1084 208 L 1083 207 L 1083 202 L 1082 201 L 1081 190 L 1080 189 L 1080 185 L 1079 184 L 1079 179 L 1083 174 L 1083 137 L 1082 135 L 1076 130 Z M 1064 142 L 1069 142 L 1071 144 L 1071 167 L 1069 169 L 1064 169 L 1063 168 L 1063 143 Z M 998 130 L 998 209 L 999 211 L 1005 216 L 1024 216 L 1030 211 L 1030 209 L 1031 208 L 1031 131 L 1030 130 L 1019 130 L 1019 202 L 1017 204 L 1012 204 L 1010 202 L 1010 130 Z M 951 130 L 945 137 L 945 208 L 946 209 L 946 211 L 952 216 L 971 216 L 977 211 L 977 209 L 978 208 L 978 184 L 977 183 L 967 183 L 966 184 L 966 201 L 964 204 L 960 204 L 958 202 L 958 143 L 959 142 L 964 142 L 966 144 L 966 162 L 967 163 L 976 163 L 978 162 L 978 139 L 977 138 L 977 135 L 975 133 L 975 132 L 974 132 L 972 130 Z M 234 129 L 233 130 L 233 220 L 230 223 L 228 223 L 227 224 L 227 267 L 229 269 L 263 269 L 265 267 L 265 265 L 266 264 L 266 256 L 265 255 L 265 250 L 266 249 L 266 231 L 265 230 L 265 227 L 266 226 L 266 132 L 264 129 Z M 97 129 L 95 131 L 95 266 L 96 268 L 98 269 L 132 269 L 133 268 L 133 223 L 130 223 L 127 220 L 127 130 L 126 129 Z M 148 128 L 146 130 L 146 220 L 143 223 L 141 223 L 141 259 L 140 260 L 140 267 L 142 269 L 158 269 L 160 267 L 160 203 L 163 200 L 164 200 L 169 204 L 176 219 L 179 221 L 182 221 L 184 219 L 193 202 L 195 201 L 198 201 L 200 203 L 200 267 L 202 269 L 218 269 L 220 267 L 220 224 L 219 223 L 217 223 L 215 221 L 215 131 L 214 129 L 212 129 L 211 128 L 203 128 L 200 131 L 199 135 L 191 150 L 191 152 L 187 159 L 187 161 L 182 171 L 181 172 L 179 172 L 176 167 L 176 165 L 173 159 L 173 157 L 169 150 L 169 148 L 163 137 L 163 135 L 161 131 L 159 129 L 157 129 L 156 128 Z M 796 102 L 795 103 L 795 147 L 796 148 L 803 150 L 804 151 L 806 151 L 809 153 L 812 153 L 812 126 L 813 124 L 818 120 L 830 120 L 831 121 L 831 270 L 830 271 L 817 271 L 813 268 L 812 266 L 812 232 L 809 232 L 806 234 L 797 236 L 795 237 L 795 288 L 796 289 L 851 289 L 852 288 L 852 103 L 851 102 Z M 713 102 L 712 103 L 712 289 L 767 289 L 768 288 L 768 237 L 761 235 L 760 234 L 758 234 L 755 232 L 751 232 L 751 266 L 750 268 L 746 271 L 734 271 L 732 269 L 732 122 L 734 120 L 745 120 L 751 125 L 751 153 L 754 153 L 757 151 L 768 148 L 768 103 L 767 102 Z M 779 56 L 778 57 L 778 155 L 775 157 L 772 157 L 763 161 L 755 168 L 755 169 L 752 172 L 748 180 L 748 183 L 747 184 L 747 187 L 746 188 L 746 197 L 747 198 L 747 202 L 748 203 L 748 205 L 752 213 L 755 216 L 755 217 L 763 224 L 772 228 L 776 228 L 778 230 L 778 312 L 780 314 L 784 314 L 785 313 L 785 230 L 787 228 L 791 228 L 794 226 L 798 225 L 800 223 L 804 221 L 809 216 L 809 215 L 813 210 L 815 203 L 816 202 L 816 199 L 817 198 L 817 187 L 816 186 L 816 182 L 815 181 L 815 179 L 810 170 L 800 161 L 794 158 L 788 157 L 785 155 L 785 57 L 784 56 Z M 777 170 L 786 170 L 793 173 L 801 181 L 801 183 L 803 186 L 803 190 L 804 191 L 804 193 L 803 194 L 803 198 L 800 205 L 793 212 L 786 215 L 777 215 L 776 214 L 772 213 L 763 205 L 760 198 L 760 194 L 759 192 L 760 191 L 760 187 L 763 180 L 769 174 Z" fill="#eee2c5" fill-rule="evenodd"/>
</svg>
